<svg xmlns="http://www.w3.org/2000/svg" xmlns:xlink="http://www.w3.org/1999/xlink" viewBox="0 0 226.4 42.5"><defs><linearGradient id="146df780-f96a-43fa-afe1-bf0187d43290" x1="15.08" y1="36.34" x2="45.9" y2="5.52" gradientUnits="userSpaceOnUse"><stop offset="0" stop-color="#0d55ff"/><stop offset="0.18" stop-color="#1650ff"/><stop offset="0.47" stop-color="#2e41ff"/><stop offset="0.84" stop-color="#562aff"/><stop offset="1" stop-color="#691fff"/></linearGradient></defs><title>brand_primary</title><g id="70a8e6c8-839a-4271-beb5-90f672b697a4" data-name="レイヤー 2"><g id="74f4aea6-5e79-4e8d-b065-0f8d72312374" data-name="brand"><path d="M23.5,5.1,5.1,23.5a2.9,2.9,0,0,1-4.2,0,3,3,0,0,1,0-4.3L19.2.9a3,3,0,0,1,4.3,0A2.9,2.9,0,0,1,23.5,5.1ZM59.4,19a2.9,2.9,0,0,0-4.2,0L36.8,37.4a3.1,3.1,0,0,0,0,4.2,3,3,0,0,0,4.3,0L59.4,23.3A3,3,0,0,0,59.4,19ZM27.3,15.1a2.9,2.9,0,0,0-4.2,0L9.9,28.3a2.9,2.9,0,0,0,0,4.2,3,3,0,0,0,4.3,0L27.3,19.3A2.9,2.9,0,0,0,27.3,15.1ZM50.4,10a2.9,2.9,0,0,0-4.2,0L33,23.2a2.9,2.9,0,0,0,0,4.2,3,3,0,0,0,4.3,0L50.4,14.3A3,3,0,0,0,50.4,10Zm-22,22a3.2,3.2,0,0,0-4.3,0l-5.2,5.3a2.9,2.9,0,0,0,0,4.2,3,3,0,0,0,4.3,0l5.2-5.2A3,3,0,0,0,28.4,32Zm13-31a2.9,2.9,0,0,0-4.2,0L31.9,6.2a3,3,0,1,0,4.3,4.3l5.2-5.3A2.9,2.9,0,0,0,41.4,1Z" style="fill:url(#146df780-f96a-43fa-afe1-bf0187d43290)"/><path d="M80.4,3.8c-2.2,0-4,.6-5,1.9a7.7,7.7,0,0,0-1.7,5.2v4.5H70.6v4.7h3.1V36.9h4.9V20.1h5.3V15.4H78.6V12.3a5.6,5.6,0,0,1,.7-3.1,2.5,2.5,0,0,1,2.1-.7l2.4.2.5.2V4.3H84A10.5,10.5,0,0,0,80.4,3.8Z" style="fill:#232323"/><path d="M102.3,16.5A11.3,11.3,0,0,0,96.6,15a11,11,0,0,0-5.7,1.5,11.5,11.5,0,0,0-4.1,4.1,11.4,11.4,0,0,0,0,11.3,11.2,11.2,0,0,0,9.8,5.6,11.3,11.3,0,0,0,5.7-1.5,11.5,11.5,0,0,0,4.1-4.1,10.1,10.1,0,0,0,1.6-5.6,10.2,10.2,0,0,0-1.6-5.7A11.5,11.5,0,0,0,102.3,16.5Zm-1.1,14.4a6,6,0,0,1-4.6,1.9,6,6,0,0,1-4.5-1.9,6.2,6.2,0,0,1-1.9-4.6,6.2,6.2,0,0,1,1.9-4.6,5.6,5.6,0,0,1,4.5-2,6.2,6.2,0,0,1,4.6,1.9,6.6,6.6,0,0,1,1.9,4.6A6.8,6.8,0,0,1,101.2,30.9Z" style="fill:#232323"/><path d="M118.3,15.6a6.5,6.5,0,0,0-2.7,1.7V15.4h-4.9V36.9h4.9V25.8a9,9,0,0,1,.3-2.5,4.3,4.3,0,0,1,3.4-3.1,14.5,14.5,0,0,1,4-.5h.4V15h-.4A16.6,16.6,0,0,0,118.3,15.6Z" style="fill:#232323"/><polygon points="145.6 15.4 139 15.4 131.5 23.4 131.5 3.8 126.6 3.8 126.6 36.9 131.5 36.9 131.5 27.6 139.8 36.9 146.3 36.9 136.1 25.3 145.6 15.4" style="fill:#232323"/><polygon points="177.5 15.4 172.3 30 167.1 15.4 162.7 15.4 157.5 30 152.3 15.4 146.9 15.4 155 36.9 160 36.9 164.9 22.7 169.9 36.9 174.8 36.9 183 15.4 177.5 15.4" style="fill:#232323"/><path d="M201.6,18.4a9.8,9.8,0,0,0-3.5-2.5,10.8,10.8,0,0,0-4.4-.9,10.9,10.9,0,0,0-9.6,5.7,10.8,10.8,0,0,0-1.4,5.6A11.1,11.1,0,0,0,194,37.5a11.3,11.3,0,0,0,5.1-1.2,10.8,10.8,0,0,0,4-3.3l.2-.3L199.7,30l-.2.3a5.7,5.7,0,0,1-2.4,1.9,6.8,6.8,0,0,1-3.1.8,6,6,0,0,1-4.3-1.6,7,7,0,0,1-2.1-3.4h17v-.3a8.6,8.6,0,0,0,.1-1.5,12.6,12.6,0,0,0-.8-4.3A11.8,11.8,0,0,0,201.6,18.4ZM187.8,24a6.2,6.2,0,0,1,2.1-3.1,5.7,5.7,0,0,1,3.8-1.4,6.1,6.1,0,0,1,4,1.4,6,6,0,0,1,1.9,3.1Z" style="fill:#232323"/><path d="M214.4,33.1a2.2,2.2,0,0,1-1.8-.6,4.4,4.4,0,0,1-.5-2.3V4h-4.9V31.5a6.6,6.6,0,0,0,1.6,4.6,5.6,5.6,0,0,0,4.3,1.7,7.5,7.5,0,0,0,2.4-.4h.3V33h-1.4Z" style="fill:#232323"/><path d="M226,33h-1c-.9,0-1.5-.2-1.7-.6a3.6,3.6,0,0,1-.5-2.3V4h-4.9V31.5a6.5,6.5,0,0,0,1.5,4.6,5.8,5.8,0,0,0,4.3,1.7,7.5,7.5,0,0,0,2.4-.4h.3V33Z" style="fill:#232323"/></g></g></svg>